<svg id="Layer_35" enable-background="new 0 0 64 64" height="512" viewBox="0 0 64 64" width="512" xmlns="http://www.w3.org/2000/svg"><path d="m26 49-4.59 4.59c-.9.9-2.13 1.41-3.41 1.41s-2.51-.51-3.41-1.41l-11.76-11.76c-.53-.53-.83-1.25-.83-2 0-.78.32-1.49.83-2s1.22-.83 2-.83c.75 0 1.47.3 2 .83l10.17 10.17 4-4z" fill="#969faa"/><path d="m33.17 48.17c.53.53.83 1.25.83 2 0 .78-.32 1.49-.83 2s-1.22.83-2 .83c-.75 0-1.47-.3-2-.83l-3.17-3.17-5-5-12.24-12.24c-.53-.53-.83-1.27-.83-2.03 0-.01 0-.03 0-.04.04-1.5 1.26-2.72 2.76-2.76.78-.01 1.53.29 2.07.83z" fill="#aab2bd"/><path d="m31.22 22c1.78 0 3.49-.71 4.74-1.96l1.08-1.08c1.25-1.25 2.96-1.96 4.74-1.96h2.22v5l2.35 4h-11.35c-2.21 0-4-1.79-4-4v-.01c.07.01.15.01.22.01z" fill="#fcd770"/><path d="m58 39v4c0 1.28-.51 2.51-1.41 3.41l-9.09 9.09-38.05-38.05c.9-.89 2.13-1.45 3.5-1.45h.25c.6 0 1.19.11 1.75.32l13.91 5.25c.68.25 1.4.4 2.14.42v.01c0 2.21 1.79 4 4 4h11.35l7.65 13z" fill="#ffeaa7"/><path d="m47.5 55.5-.09.09c-.9.9-2.13 1.41-3.41 1.41s-2.51-.51-3.41-1.41l-7.42-7.42-20.41-20.41-3.31-3.31c-.93-.93-1.45-2.19-1.45-3.5 0-1.37.56-2.6 1.45-3.5z" fill="#cf9e76"/><path d="m51 43.55v.21c0 1.17-.48 2.23-1.24 3-.77.76-1.83 1.24-3 1.24-1.13 0-2.21-.45-3-1.24l-10.14-10.14c-.4-.4-.62-.94-.62-1.5 0-1.17.95-2.12 2.12-2.12h.35c.35 0 .69.09 1 .25l12.28 6.55c1.39.74 2.25 2.18 2.25 3.75z" fill="#ff826e"/><path d="m62 7v24l-8 8-7.65-13-2.35-4 15-15z" fill="#f0d0b4"/><path d="m63 6h-4.414l-13.586 13.586v-3.586h-3.223c-2.058 0-3.992.801-5.447 2.256l-1.073 1.073c-1.55 1.55-3.997 2.078-6.048 1.303l-13.907-5.249c-.674-.254-1.381-.383-2.101-.383h-.251c-3.281 0-5.95 2.669-5.95 5.95 0 1.589.619 3.083 1.743 4.207l.946.946c-1.562.457-2.713 1.864-2.753 3.567-.026 1.042.382 2.062 1.12 2.8l11.525 11.525-2.586 2.586-9.459-9.459c-.724-.724-1.685-1.122-2.707-1.122-2.112 0-3.829 1.717-3.829 3.829 0 1.022.398 1.984 1.122 2.707l11.757 11.757c1.1 1.101 2.564 1.707 4.121 1.707s3.021-.606 4.121-1.707l3.879-3.879 2.464 2.464c.724.724 1.685 1.122 2.707 1.122 1.737 0 3.19-1.17 3.657-2.757l5.05 5.05c1.101 1.101 2.565 1.707 4.122 1.707s3.021-.606 4.121-1.707l9.172-9.172c1.101-1.1 1.707-2.564 1.707-4.121v-5h-2.586l6.586-6.586zm-26.33 14.744 1.073-1.073c1.062-1.062 2.532-1.67 4.033-1.67h1.224v4.272l1.604 2.727h-9.604c-1.325 0-2.439-.869-2.835-2.063 1.7-.207 3.275-.963 4.505-2.193zm-15.963 32.135c-1.446 1.446-3.968 1.446-5.414 0l-11.757-11.757c-.346-.346-.536-.805-.536-1.293 0-1.009.82-1.829 1.829-1.829.488 0 .947.19 1.293.536l10.874 10.874 4-4 3.59 3.59zm12.293-2.708c0 1.009-.82 1.829-1.829 1.829-.488 0-.947-.19-1.293-.536l-20.408-20.408c-.352-.353-.547-.839-.535-1.337.023-.977.807-1.76 1.784-1.784h.044c.481 0 .951.194 1.292.536l20.409 20.409c.346.344.536.803.536 1.291zm8.293 4.708-7.415-7.415-20.408-20.408-3.313-3.313c-.746-.746-1.157-1.738-1.157-2.793 0-.726.211-1.397.553-1.982l36.447 36.446c-1.464.87-3.474.698-4.707-.535zm15.707-11.879c0 1.022-.398 1.984-1.121 2.707l-8.379 8.379-36.532-36.533c.584-.342 1.256-.553 1.982-.553h.251c.479 0 .948.085 1.395.254l13.907 5.249c.516.195 1.049.326 1.59.406.429 2.323 2.462 4.091 4.907 4.091h10.781l7.647 13h3.572zm4-12.414-6.793 6.793-8.953-15.219 14.16-14.16h1.586z"/><path d="m49.225 38.92-12.287-6.553c-.451-.24-.959-.367-1.468-.367h-.349c-1.721 0-3.121 1.4-3.121 3.121 0 .834.325 1.618.914 2.207l10.136 10.136c.99.99 2.307 1.536 3.707 1.536 2.891 0 5.243-2.352 5.243-5.243v-.212c0-1.94-1.063-3.712-2.775-4.625zm.775 4.837c0 1.788-1.455 3.243-3.243 3.243-.866 0-1.68-.337-2.293-.95l-10.136-10.136c-.211-.212-.328-.493-.328-.793 0-.618.503-1.121 1.121-1.121h.349c.183 0 .366.046.527.132l12.286 6.553c1.059.565 1.717 1.661 1.717 2.86z"/></svg>