<svg id="Layer_5" enable-background="new 0 0 64 64" height="512" viewBox="0 0 64 64" width="512" xmlns="http://www.w3.org/2000/svg"><g><g><g><path d="m22.77 44h18.46c-.62 1.95-1.22 3.54-1.64 4.59-.36.9-.59 1.41-.59 1.41h-3-4-4-3s-.23-.51-.59-1.41c-.42-1.05-1.02-2.64-1.64-4.59z" fill="#fcd770"/></g><g><path d="m44 28c0 2.48-.25 4.96-.65 7.31-.21 1.29-.47 2.53-.75 3.72-.42 1.82-.91 3.5-1.37 4.97h-18.46c-.46-1.47-.95-3.15-1.37-4.97-.63-2.68-1.15-5.66-1.32-8.7-.05-.77-.08-1.55-.08-2.33 0-5.78 2.32-11.56 4.73-16h14.54c2.41 4.44 4.73 10.22 4.73 16z" fill="#ffeaa7"/></g><g><path d="m25 50h3l-4 4 1.75 2h-16.75c-3.87 0-7-3.13-7-7s3.13-7 7-7c.36 0 .7.04 1.05.09.4-5.77 4.54-10.5 10.02-11.76h.01c.17 3.04.69 6.02 1.32 8.7-2.46.18-4.4 2.21-4.4 4.71 0 .83.22 1.64.62 2.35l3.38 5.91 3.41-3.41c.36.9.59 1.41.59 1.41z" fill="#e6e9ed"/></g><g><path d="m53 38c4.97 0 9 4.03 9 9s-4.03 9-9 9h-14.75l1.75-2-4-4h3s.23-.51.59-1.41l3.41 3.41 3.38-5.91c.4-.71.62-1.52.62-2.35 0-2.5-1.94-4.53-4.4-4.71.28-1.19.54-2.43.75-3.72 2.19.59 4.04 1.99 5.23 3.85 1.31-.73 2.81-1.16 4.42-1.16z" fill="#e6e9ed"/></g><g><path d="m36 50 4 4-1.75 2-5.25 6h-2l-5.25-6-1.75-2 4-4h4c-.55 0-1.05.22-1.41.59-.37.36-.59.86-.59 1.41v.39c0 .4.12.79.34 1.11l1.66 2.5 1.66-2.5c.22-.32.34-.71.34-1.11v-.39c0-1.1-.9-2-2-2z" fill="#ff826e"/></g><g><path d="m34 52.39c0 .4-.12.79-.34 1.11l-1.66 2.5-1.66-2.5c-.22-.32-.34-.71-.34-1.11v-.39c0-.55.22-1.05.59-1.41.36-.37.86-.59 1.41-.59 1.1 0 2 .9 2 2z" fill="#fc6e51"/></g><g><path d="m47 43.74c0 .83-.22 1.64-.62 2.35l-3.38 5.91-3.41-3.41c.42-1.05 1.02-2.64 1.64-4.59.46-1.47.95-3.15 1.37-4.97 2.46.18 4.4 2.21 4.4 4.71z" fill="#ff826e"/></g><g><path d="m24.41 48.59-3.41 3.41-3.38-5.91c-.4-.71-.62-1.52-.62-2.35 0-2.5 1.94-4.53 4.4-4.71.42 1.82.91 3.5 1.37 4.97.62 1.95 1.22 3.54 1.64 4.59z" fill="#ff826e"/></g><g><path d="m39.27 12h-14.54c1.46-2.71 2.96-4.91 3.98-6.32.77-1.05 1.99-1.68 3.29-1.68s2.52.63 3.29 1.68c1.02 1.41 2.52 3.61 3.98 6.32z" fill="#ff826e"/></g><g><path d="m32 18c-4.42 0-8 3.58-8 8 0 1.46.39 2.83 1.08 4 1.37 2.39 3.96 4 6.92 4s5.55-1.61 6.92-4c.69-1.17 1.08-2.54 1.08-4 0-4.42-3.58-8-8-8z" fill="#69d6f4"/></g><g><circle cx="32" cy="28" fill="#fcd770" r="2"/></g><g><path d="m9.41 2.91 3.59 8.09h-3v19h-4v-19h-3l3.59-8.09c.25-.55.8-.91 1.41-.91s1.16.36 1.41.91z" fill="#b4dd7f"/></g><g><path d="m57.41 2.91 3.59 8.09h-3v19h-4v-19h-3l3.59-8.09c.25-.55.8-.91 1.41-.91s1.16.36 1.41.91z" fill="#b4dd7f"/></g></g><g><path d="m53 37c-1.412 0-2.812.303-4.099.882-1.147-1.483-2.678-2.607-4.425-3.256.321-2.144.524-4.379.524-6.626 0-9.632-6.228-19.229-8.904-22.908-.953-1.31-2.485-2.092-4.096-2.092s-3.143.782-4.096 2.092c-2.676 3.679-8.904 13.276-8.904 22.908 0 .527.014 1.053.035 1.578-5.197 1.541-9.099 6.058-9.878 11.424-.053-.002-.105-.002-.157-.002-4.411 0-8 3.589-8 8s3.589 8 8 8h16.296l5.25 6h2.908l5.25-6h14.296c5.514 0 10-4.486 10-10s-4.486-10-10-10zm-27.342 12c-.309-.739-.871-2.145-1.499-4h15.682c-.628 1.855-1.19 3.261-1.499 4zm7.342 3v.395c0 .198-.059.39-.168.555l-.832 1.247-.832-1.248c-.109-.165-.168-.357-.168-.554v-.395c0-.551.448-1 1-1s1 .449 1 1zm-9.765-3.649-2.017 2.017-2.726-4.771c-.322-.564-.492-1.205-.492-1.856 0-1.652 1.112-3.071 2.644-3.544.864 3.45 1.884 6.336 2.591 8.154zm20.121-8.154c1.532.473 2.644 1.892 2.644 3.544 0 .65-.17 1.292-.493 1.856l-2.726 4.77-2.017-2.017c.708-1.817 1.728-4.703 2.592-8.153zm-13.835-33.928c.579-.795 1.505-1.269 2.479-1.269s1.9.474 2.479 1.269c.794 1.091 1.915 2.727 3.083 4.731h-11.124c1.168-2.004 2.289-3.64 3.083-4.731zm-4.188 6.731h13.333c2.239 4.245 4.334 9.639 4.334 15 0 5.441-1.269 10.918-2.518 15h-16.964c-1.249-4.082-2.518-9.559-2.518-15 0-5.361 2.095-10.755 4.333-15zm-16.333 42c-3.309 0-6-2.691-6-6s2.691-6 6-6c.27 0 .555.024.897.075l1.07.161.076-1.08c.337-4.822 3.615-8.992 8.123-10.522.201 2.294.57 4.527 1.02 6.608-2.421.684-4.188 2.91-4.188 5.5 0 .999.262 1.984.757 2.848l4.024 7.043 3.281-3.281c.012.026.022.05.028.062l.268.586h1.23l-2.954 2.955.915 1.045zm23.546 6h-1.092l-6.086-6.955 3.046-3.045h.77c-.112.314-.184.648-.184 1v.395c0 .593.174 1.168.504 1.664l2.496 3.744 2.496-3.745c.33-.495.504-1.07.504-1.664v-.394c0-.352-.072-.686-.184-1h.77l3.046 3.045zm20.454-6h-12.547l.915-1.045-2.954-2.955h1.23l.267-.586c.005-.012.016-.035.028-.062l3.281 3.281 4.024-7.042c.494-.866.756-1.851.756-2.85 0-2.59-1.767-4.815-4.188-5.5.113-.522.22-1.054.322-1.593 1.469.628 2.727 1.681 3.605 3.054l.51.798.825-.466c1.197-.676 2.556-1.034 3.926-1.034 4.411 0 8 3.589 8 8s-3.589 8-8 8z"/><path d="m5 30h2v-20h-2.461l2.969-6.68c.172-.389.813-.389.984 0l2.969 6.68h-2.461v20h2v-18h3.539l-4.219-9.493c-.407-.915-1.318-1.507-2.32-1.507s-1.913.592-2.32 1.507l-4.219 9.493h3.539z"/><path d="m53 30h2v-20h-2.461l2.969-6.68c.172-.389.813-.389.984 0l2.969 6.68h-2.461v20h2v-18h3.539l-4.219-9.493c-.407-.915-1.318-1.507-2.32-1.507s-1.913.592-2.32 1.507l-4.219 9.493h3.539z"/><path d="m32 35c4.963 0 9-4.038 9-9s-4.037-9-9-9-9 4.038-9 9 4.037 9 9 9zm-4.889-4h9.779c-1.263 1.235-2.988 2-4.889 2s-3.628-.765-4.89-2zm3.889-3c0-.551.448-1 1-1s1 .449 1 1-.448 1-1 1-1-.449-1-1zm1-9c3.859 0 7 3.14 7 7 0 1.075-.251 2.089-.685 3h-3.499c.112-.314.184-.648.184-1 0-1.302-.839-2.402-2-2.816v-4.184h-2v4.184c-1.161.414-2 1.514-2 2.816 0 .352.072.686.184 1h-3.499c-.434-.911-.685-1.925-.685-3 0-3.86 3.141-7 7-7z"/><path d="m5 32h2v2h-2z"/><path d="m57 32h2v2h-2z"/></g></g></svg>