<svg id="Capa_1" enable-background="new 0 0 496.771 496.771" height="512" viewBox="0 0 496.771 496.771" width="512" xmlns="http://www.w3.org/2000/svg"><g><g id="XMLID_249_"><g><path d="m263.849 216.142-111.141 82.685-51.819-29.505h-87.644c-3.831 0-6.921 3.135-6.867 6.966l1.797 125.256c.056 3.9 3.346 6.971 7.241 6.758l65.062-3.55 41.28 22.63c7.4 4.06 15.71 6.18 24.15 6.18h131.55v-217.42z" fill="#ffdfcf"/></g></g><path d="m117.511 404.933-38.023-20.291c-2.868-1.53-6.099-2.248-9.344-2.076l-62.193 3.304.225 15.674c.056 3.9 3.346 6.971 7.241 6.758l65.062-3.55 41.28 22.63c7.4 4.06 15.71 6.18 24.15 6.18h131.55v-22.449h-135.139c-8.67 0-17.207-2.12-24.809-6.18z" fill="#ffcebf"/><g><path d="m277.459 244.039h-31.955c-23.217 0-42.105 18.889-42.105 42.105 0 8.103 2.307 15.675 6.29 22.105-3.983 6.43-6.29 14.002-6.29 22.105s2.307 15.676 6.29 22.105c-3.983 6.43-6.29 14.002-6.29 22.105s2.307 15.676 6.29 22.105c-3.983 6.43-6.29 14.002-6.29 22.105 0 5.202.955 10.183 2.688 14.787h71.373v-189.522z" fill="#ffcebf"/><path d="m263.849 216.142-111.141 82.685-38.389-21.858v37.808c0 18.768 15.046 34.285 33.814 34.384.122.001.244.001.366.001h16.79c29.923 0 57.861-16.058 72.914-41.907l3.407-5.853 35.849-68.17v-17.09z" fill="#ffcebf"/><path d="m263.849 216.142-39.74 75.57-3.19 5.48c-11.53 19.8-32.71 31.97-55.63 31.97h-16.79c-25.85 0-46.93-20.717-47.379-46.563l-.231-13.277 71.13-45.65c7.66-4.91 16.57-7.53 25.67-7.53h44.8z" fill="#ffdfcf"/><path d="m285.964 496.771h-40.259c-1.774 0-3.211-1.438-3.211-3.211v-406.421h46.682v406.421c-.001 1.773-1.439 3.211-3.212 3.211z" fill="#9b8e99"/><path d="m297.118 308.249h-51.615c-12.208 0-22.105-9.897-22.105-22.105 0-12.208 9.897-22.105 22.105-22.105h51.615c12.208 0 22.105 9.897 22.105 22.105.001 12.208-9.896 22.105-22.105 22.105z" fill="#ffdfcf"/><path d="m294.494 352.459h-48.991c-12.208 0-22.105-9.897-22.105-22.105 0-12.208 9.897-22.105 22.105-22.105h48.991c12.208 0 22.105 9.897 22.105 22.105 0 12.209-9.897 22.105-22.105 22.105z" fill="#ffdfcf"/><path d="m288.376 396.67h-42.873c-12.208 0-22.105-9.897-22.105-22.105 0-12.208 9.897-22.105 22.105-22.105h42.873c12.208 0 22.105 9.897 22.105 22.105 0 12.208-9.896 22.105-22.105 22.105z" fill="#ffdfcf"/><path d="m283.375 440.88h-37.872c-12.208 0-22.105-9.897-22.105-22.105 0-12.208 9.897-22.105 22.105-22.105h37.872c12.208 0 22.105 9.897 22.105 22.105.001 12.208-9.896 22.105-22.105 22.105z" fill="#ffdfcf"/><g fill="#ffcebf"><path d="m297.118 292.942h-51.615c-9.518 0-17.629-6.016-20.743-14.452-.88 2.385-1.362 4.963-1.362 7.653 0 12.208 9.897 22.105 22.105 22.105h51.615c12.208 0 22.105-9.897 22.105-22.105 0-2.691-.472-5.256-1.352-7.641-3.114 8.437-11.235 14.44-20.753 14.44z"/><path d="m294.494 337.152h-48.991c-9.518 0-17.635-6.024-20.748-14.46-.88 2.385-1.357 4.971-1.357 7.662 0 12.208 9.897 22.105 22.105 22.105h48.991c12.208 0 22.105-9.897 22.105-22.105 0-2.691-.474-5.264-1.354-7.649-3.114 8.436-11.233 14.447-20.751 14.447z"/><path d="m288.376 381.363h-42.873c-9.518 0-17.63-6.027-20.744-14.464-.88 2.385-1.361 4.975-1.361 7.665 0 12.208 9.897 22.105 22.105 22.105h42.873c12.208 0 22.105-9.897 22.105-22.105 0-2.691-.474-5.263-1.354-7.648-3.114 8.436-11.233 14.447-20.751 14.447z"/><path d="m283.376 425.573h-37.873c-9.518 0-17.633-6.024-20.747-14.46-.88 2.385-1.358 4.971-1.358 7.662 0 12.208 9.897 22.105 22.105 22.105h37.873c12.208 0 22.105-9.897 22.105-22.105 0-2.691-.479-5.277-1.359-7.662-3.114 8.436-11.229 14.46-20.746 14.46z"/></g><path d="m466.848 154.368h-404.817c-13.004 0-23.545-10.542-23.545-23.545v-107.278c0-13.003 10.541-23.545 23.545-23.545h404.816c13.004 0 23.545 10.542 23.545 23.545v107.277c.001 13.004-10.541 23.546-23.544 23.546z" fill="#f58a97"/><path d="m118.881 130.403c-21.735 0-39.354-17.62-39.354-39.354v-91.049h-17.496c-13.004 0-23.545 10.542-23.545 23.545v107.277c0 13.004 10.542 23.545 23.545 23.545h404.816c13.004 0 23.545-10.542 23.545-23.545v-.42h-371.511z" fill="#f07281"/><g fill="#f5f8f9"><path d="m147.343 69.684h-5.579c-4.539 0-8.232-3.693-8.232-8.233s3.693-8.232 8.232-8.232h17.521c4.143 0 7.5-3.358 7.5-7.5s-3.357-7.5-7.5-7.5h-17.521c-12.811 0-23.232 10.422-23.232 23.232s10.422 23.233 23.232 23.233h5.579c4.539 0 8.232 3.693 8.232 8.232s-3.693 8.233-8.232 8.233h-21.312c-4.143 0-7.5 3.358-7.5 7.5s3.357 7.5 7.5 7.5h21.312c12.811 0 23.232-10.422 23.232-23.233s-10.421-23.232-23.232-23.232z"/><path d="m225.284 38.219h-39.873c-4.143 0-7.5 3.358-7.5 7.5s3.357 7.5 7.5 7.5h12.437v55.431c0 4.142 3.357 7.5 7.5 7.5s7.5-3.358 7.5-7.5v-55.431h12.437c4.143 0 7.5-3.358 7.5-7.5s-3.359-7.5-7.501-7.5z"/><path d="m268.307 38.219c-15.713 0-28.496 12.784-28.496 28.497v20.937c0 15.713 12.783 28.497 28.496 28.497s28.497-12.784 28.497-28.497v-20.938c0-15.713-12.784-28.496-28.497-28.496zm13.497 49.433c0 7.442-6.055 13.497-13.497 13.497-7.441 0-13.496-6.055-13.496-13.497v-20.937c0-7.442 6.055-13.497 13.496-13.497 7.442 0 13.497 6.055 13.497 13.497z"/><path d="m338.905 38.219h-5.95c-10.111 0-18.338 8.226-18.338 18.337v52.093c0 4.142 3.357 7.5 7.5 7.5s7.5-3.358 7.5-7.5v-17.565h9.288c14.575 0 26.433-11.857 26.433-26.433s-11.858-26.432-26.433-26.432zm0 37.865h-9.288v-14.603-4.925c0-1.84 1.497-3.337 3.338-3.337h5.95c6.304 0 11.433 5.128 11.433 11.433s-5.129 11.432-11.433 11.432z"/><path d="m394.077 93.664c-4.143 0-7.5 3.358-7.5 7.5v7.485c0 4.142 3.357 7.5 7.5 7.5s7.5-3.358 7.5-7.5v-7.485c0-4.142-3.358-7.5-7.5-7.5z"/><path d="m394.077 38.219c-4.143 0-7.5 3.358-7.5 7.5v29.049c0 4.142 3.357 7.5 7.5 7.5s7.5-3.358 7.5-7.5v-29.049c0-4.142-3.358-7.5-7.5-7.5z"/></g></g></g></svg>